<?xml version="1.0" encoding="UTF-8" standalone="no"?>
<svg width="47px" height="13px" viewBox="0 0 47 13" version="1.1" xmlns="http://www.w3.org/2000/svg" xmlns:xlink="http://www.w3.org/1999/xlink">
    <!-- Generator: Sketch 3.7.2 (28276) - http://www.bohemiancoding.com/sketch -->
    <title>merlin</title>
    <desc>Created with Sketch.</desc>
    <defs></defs>
    <g id="Symbols" stroke="none" stroke-width="1" fill="none" fill-rule="evenodd">
        <g id="Nav" transform="translate(-12.000000, -9.000000)" fill="#FFFFFF">
            <path d="M16.036,21.294 C16.274,21.14 16.498,20.93 16.652,20.762 C16.834,20.552 16.778,20.286 16.554,20.118 L16.078,19.754 C15.798,19.544 15.84,19.418 15.84,18.774 L15.84,15.316 C15.84,15.078 15.896,14.882 16.232,14.602 L16.666,14.238 C16.764,14.154 16.946,14.238 17.03,14.308 L17.128,14.378 C17.408,14.602 17.38,14.714 17.38,15.358 L17.38,19.488 L17.38,19.502 C17.38,19.698 17.324,20.02 17.114,20.202 C16.89,20.398 16.932,20.748 17.072,20.916 C17.282,21.154 17.548,21.154 17.688,21.112 C17.786,21.084 17.94,21.042 18.024,21.042 C18.108,21.042 18.234,21.07 18.36,21.14 L18.514,21.28 C18.906,21.63 19.326,21.574 19.774,21.28 C20.026,21.112 20.236,20.916 20.39,20.748 C20.572,20.538 20.516,20.272 20.292,20.104 L19.816,19.74 C19.536,19.53 19.578,19.404 19.578,18.76 L19.578,15.302 C19.578,15.064 19.634,14.868 19.97,14.588 L20.404,14.224 C20.502,14.14 20.684,14.224 20.768,14.294 L20.866,14.364 C21.146,14.588 21.104,14.7 21.104,15.344 L21.104,19.474 C21.104,19.754 21.132,20.188 21.342,20.454 C21.552,20.72 21.762,20.944 22.252,21.28 C22.686,21.574 23.05,21.546 23.512,21.28 C23.778,21.126 23.974,20.916 24.128,20.734 C24.31,20.524 24.268,20.244 24.03,20.09 C23.89,19.992 23.722,19.866 23.554,19.726 C23.288,19.502 23.316,19.39 23.316,18.746 L23.316,15.078 C23.316,14.77 23.442,14.784 23.568,14.7 C23.652,14.644 23.722,14.56 23.722,14.448 C23.722,14.308 23.68,14.238 23.554,14.126 L23.19,13.748 C23.162,13.72 23.12,13.678 23.078,13.636 C22.854,13.384 22.56,13.132 22.168,12.824 C21.748,12.502 21.328,12.488 20.908,12.824 C20.572,13.09 20.152,13.482 19.886,13.734 C19.732,13.888 19.508,13.846 19.34,13.65 C19.116,13.412 18.696,13.048 18.43,12.838 C18.024,12.516 17.59,12.502 17.17,12.838 C16.876,13.076 16.484,13.412 16.148,13.748 C15.994,13.902 15.812,13.874 15.616,13.678 L15.602,13.664 C15.322,13.398 15.042,13.132 14.692,12.852 C14.272,12.516 13.88,12.53 13.446,12.852 C13.11,13.104 12.844,13.328 12.592,13.636 C12.438,13.818 12.41,14.014 12.508,14.154 C12.606,14.28 12.802,14.322 12.928,14.252 C13.04,14.182 13.208,14.252 13.292,14.322 L13.39,14.392 C13.656,14.588 13.628,14.728 13.628,15.372 L13.628,19.502 L13.628,19.516 C13.628,19.712 13.572,20.034 13.362,20.216 C13.138,20.412 13.18,20.762 13.32,20.93 C13.53,21.168 13.796,21.168 13.936,21.126 C14.034,21.098 14.188,21.056 14.272,21.056 C14.37,21.056 14.524,21.084 14.664,21.196 L14.776,21.294 C15.168,21.644 15.588,21.588 16.036,21.294 L16.036,21.294 Z M28.23,21.266 C29.406,21.266 30.078,20.93 30.666,20.412 C30.862,20.244 30.904,20.034 30.806,19.88 C30.694,19.698 30.568,19.684 30.176,19.88 C29.742,20.104 29.518,20.188 29.028,20.16 C28.328,20.118 27.922,19.502 27.726,18.718 C27.712,18.564 27.754,18.48 27.936,18.326 C28.58,17.808 29.406,17.15 29.812,16.814 C30.358,16.352 31.016,15.638 31.422,15.232 C31.842,14.812 31.702,14.336 31.422,13.972 C31.072,13.51 30.68,13.188 30.078,12.726 C29.658,12.404 29.252,12.46 28.818,12.726 C27.866,13.314 26.704,14.196 25.78,15.386 C25.57,15.666 25.206,16.38 25.22,17.682 C25.234,19.782 27.096,21.266 28.23,21.266 L28.23,21.266 Z M27.628,16.576 C27.684,14.994 27.67,14.91 28.16,14.518 C28.23,14.462 28.314,14.392 28.412,14.322 C28.538,14.238 28.734,14.252 28.818,14.322 C28.902,14.392 29.112,14.602 29.21,14.7 C29.616,15.092 29.616,15.61 29.21,15.96 L27.922,17.066 C27.628,17.29 27.614,17.038 27.628,16.576 L27.628,16.576 Z M36.378,21.294 C36.644,21.14 36.84,20.944 36.994,20.762 C37.162,20.552 37.12,20.286 36.896,20.118 L36.42,19.754 C36.14,19.544 36.182,19.418 36.182,18.774 L36.182,14.98 C36.21,14.784 36.294,14.616 36.574,14.378 L36.728,14.238 C36.826,14.154 36.994,14.252 37.092,14.308 C37.344,14.476 37.624,14.7 37.806,14.924 C38.002,15.176 38.1,15.316 37.932,15.54 C37.778,15.75 37.778,15.946 37.946,16.086 C38.114,16.226 38.324,16.17 38.632,15.974 C39.192,15.624 39.57,15.246 39.878,14.896 C40.172,14.588 39.948,14.182 39.724,13.93 C39.388,13.552 38.842,13.104 38.492,12.838 C38.072,12.516 37.638,12.516 37.232,12.838 C36.98,13.034 36.84,13.146 36.35,13.608 C36.21,13.748 36.07,13.748 35.93,13.65 C35.72,13.454 35.286,13.034 35.034,12.852 C34.6,12.544 34.222,12.544 33.774,12.852 C33.48,13.048 33.13,13.328 32.808,13.706 C32.654,13.874 32.626,14.084 32.724,14.224 C32.822,14.35 33.018,14.392 33.144,14.322 L33.27,14.252 C33.382,14.182 33.55,14.252 33.634,14.322 L33.732,14.392 C33.998,14.588 33.97,14.728 33.97,15.372 L33.97,19.502 L33.97,19.516 C33.97,19.712 33.914,20.034 33.704,20.216 C33.48,20.412 33.522,20.762 33.662,20.93 C33.872,21.168 34.138,21.168 34.278,21.126 C34.376,21.098 34.53,21.056 34.614,21.056 C34.712,21.056 34.866,21.084 35.006,21.196 L35.118,21.294 C35.51,21.644 35.916,21.56 36.378,21.294 L36.378,21.294 Z M43.826,21.294 C44.12,21.098 44.288,20.944 44.442,20.762 C44.61,20.552 44.568,20.286 44.344,20.118 L43.868,19.754 C43.588,19.544 43.63,19.418 43.63,18.774 L43.63,12.432 C43.63,11.788 43.588,11.662 43.868,11.452 L44.344,11.088 C44.568,10.92 44.61,10.654 44.442,10.444 C44.26,10.22 44.022,10.038 43.812,9.884 C43.392,9.576 42.958,9.562 42.566,9.912 L42.244,10.206 C41.88,10.514 41.642,10.29 41.334,10.276 C41.166,10.262 41.04,10.458 41.026,10.57 C40.984,11.06 41.418,10.85 41.418,11.704 L41.418,19.502 L41.418,19.516 C41.418,19.712 41.362,20.034 41.152,20.216 C40.928,20.412 40.97,20.762 41.11,20.93 C41.32,21.168 41.586,21.168 41.726,21.126 C41.824,21.098 41.978,21.056 42.062,21.056 C42.16,21.056 42.314,21.084 42.454,21.196 L42.566,21.294 C42.958,21.644 43.378,21.602 43.826,21.294 L43.826,21.294 Z M46.542,10.472 L45.926,11.004 C45.716,11.172 45.786,11.494 46.024,11.648 L46.766,12.124 C47.214,12.404 47.606,12.46 48.026,12.124 L48.642,11.592 C48.852,11.424 48.782,11.102 48.544,10.948 L47.802,10.472 C47.354,10.192 46.962,10.136 46.542,10.472 L46.542,10.472 Z M49.09,21.322 C49.37,21.14 49.538,20.944 49.706,20.762 C49.888,20.552 49.846,20.286 49.622,20.118 L49.146,19.754 C48.866,19.544 48.908,19.418 48.908,18.774 L48.908,15.274 C48.908,14.966 49.02,14.952 49.146,14.868 C49.23,14.812 49.3,14.728 49.3,14.616 C49.3,14.476 49.258,14.406 49.132,14.294 L48.67,13.804 C48.446,13.538 48.222,13.314 47.746,12.992 C47.326,12.698 46.92,12.698 46.486,12.992 C46.136,13.23 45.786,13.566 45.52,13.846 C45.352,14.014 45.352,14.224 45.45,14.364 C45.548,14.49 45.744,14.532 45.87,14.462 L45.996,14.392 C46.108,14.322 46.276,14.392 46.36,14.462 L46.458,14.532 C46.724,14.728 46.682,14.868 46.682,15.512 L46.682,19.502 C46.682,19.698 46.626,20.02 46.416,20.202 C46.192,20.398 46.234,20.748 46.374,20.916 C46.584,21.154 46.85,21.154 46.99,21.112 C47.088,21.084 47.242,21.042 47.326,21.042 C47.424,21.042 47.564,21.07 47.704,21.168 L47.844,21.294 C48.236,21.644 48.656,21.602 49.09,21.322 L49.09,21.322 Z M54.242,21.294 C54.494,21.14 54.704,20.93 54.858,20.762 C55.04,20.552 54.984,20.286 54.76,20.118 L54.284,19.754 C54.004,19.544 54.046,19.418 54.046,18.774 L54.046,15.316 C54.046,15.078 54.102,14.882 54.438,14.602 L54.872,14.238 C54.97,14.154 55.152,14.238 55.236,14.308 L55.334,14.378 C55.614,14.602 55.572,14.714 55.572,15.358 L55.572,19.488 C55.572,19.768 55.572,20.174 55.81,20.468 C56.048,20.748 56.454,21.14 56.72,21.308 C57.168,21.588 57.504,21.574 57.98,21.294 C58.274,21.126 58.442,20.916 58.596,20.748 C58.778,20.538 58.722,20.272 58.498,20.104 L58.022,19.74 C57.742,19.53 57.784,19.404 57.784,18.76 L57.784,15.092 C57.784,14.784 57.91,14.798 58.036,14.714 C58.12,14.658 58.19,14.574 58.19,14.462 C58.19,14.322 58.148,14.252 58.022,14.14 L57.546,13.65 C57.322,13.398 56.874,13.02 56.636,12.838 C56.23,12.53 55.796,12.502 55.376,12.838 C55.096,13.062 54.69,13.412 54.354,13.748 C54.2,13.902 54.004,13.86 53.808,13.664 C53.57,13.412 53.192,13.076 52.898,12.852 C52.478,12.53 52.086,12.544 51.638,12.852 C51.358,13.048 51.134,13.258 50.798,13.636 C50.644,13.804 50.616,14.014 50.714,14.154 C50.812,14.28 51.008,14.322 51.134,14.252 C51.246,14.182 51.414,14.252 51.498,14.322 L51.596,14.392 C51.862,14.588 51.834,14.728 51.834,15.372 L51.834,19.502 L51.834,19.516 C51.834,19.712 51.778,20.034 51.568,20.216 C51.344,20.412 51.386,20.762 51.526,20.93 C51.736,21.168 52.002,21.168 52.142,21.126 C52.24,21.098 52.394,21.056 52.478,21.056 C52.576,21.056 52.73,21.084 52.87,21.196 L52.982,21.294 C53.374,21.644 53.78,21.574 54.242,21.294 L54.242,21.294 Z" id="merlin"></path>
        </g>
    </g>
</svg>